<mxfile host="Electron" agent="Mozilla/5.0 (X11; Linux x86_64) AppleWebKit/537.36 (KHTML, like Gecko) draw.io/27.0.9 Chrome/134.0.6998.205 Electron/35.4.0 Safari/537.36" version="27.0.9">
  <diagram name="PÃ¡gina-1" id="CMzOK4ToPIasY-k1PTfY">
    <mxGraphModel dx="2194" dy="1308" grid="1" gridSize="10" guides="1" tooltips="1" connect="1" arrows="1" fold="1" page="1" pageScale="1" pageWidth="1169" pageHeight="827" math="0" shadow="0">
      <root>
        <mxCell id="0" />
        <mxCell id="1" parent="0" />
        <mxCell id="l0D77ogCcX58pLdkU1v_-28" style="edgeStyle=orthogonalEdgeStyle;rounded=0;orthogonalLoop=1;jettySize=auto;html=1;entryX=1;entryY=0.5;entryDx=0;entryDy=0;curved=1;" edge="1" parent="1" source="l0D77ogCcX58pLdkU1v_-1" target="l0D77ogCcX58pLdkU1v_-23">
          <mxGeometry relative="1" as="geometry" />
        </mxCell>
        <mxCell id="l0D77ogCcX58pLdkU1v_-31" style="edgeStyle=orthogonalEdgeStyle;rounded=0;orthogonalLoop=1;jettySize=auto;html=1;entryX=1;entryY=0.5;entryDx=0;entryDy=0;curved=1;" edge="1" parent="1" source="l0D77ogCcX58pLdkU1v_-1" target="l0D77ogCcX58pLdkU1v_-5">
          <mxGeometry relative="1" as="geometry" />
        </mxCell>
        <mxCell id="l0D77ogCcX58pLdkU1v_-1" value="Local" style="whiteSpace=wrap;html=1;align=center;fillColor=#60a917;fontColor=#ffffff;strokeColor=#2D7600;" vertex="1" parent="1">
          <mxGeometry x="142" y="472.5" width="50" height="20" as="geometry" />
        </mxCell>
        <mxCell id="l0D77ogCcX58pLdkU1v_-3" value="n&lt;span style=&quot;background-color: transparent; color: light-dark(rgb(0, 0, 0), rgb(255, 255, 255));&quot;&gt;omeL&lt;/span&gt;" style="ellipse;whiteSpace=wrap;html=1;align=center;fillColor=#0050ef;fontColor=#ffffff;strokeColor=#001DBC;" vertex="1" parent="1">
          <mxGeometry x="12" y="478.5" width="60" height="30" as="geometry" />
        </mxCell>
        <mxCell id="l0D77ogCcX58pLdkU1v_-4" value="tipoL" style="ellipse;whiteSpace=wrap;html=1;align=center;fillColor=#0050ef;fontColor=#ffffff;strokeColor=#001DBC;" vertex="1" parent="1">
          <mxGeometry x="12" y="518.5" width="60" height="24" as="geometry" />
        </mxCell>
        <mxCell id="l0D77ogCcX58pLdkU1v_-5" value="descricao" style="ellipse;whiteSpace=wrap;html=1;align=center;fillColor=#0050ef;fontColor=#ffffff;strokeColor=#001DBC;" vertex="1" parent="1">
          <mxGeometry x="12" y="552.5" width="70" height="30" as="geometry" />
        </mxCell>
        <mxCell id="l0D77ogCcX58pLdkU1v_-6" value="conexaoEsp" style="ellipse;whiteSpace=wrap;html=1;align=center;fillColor=#0050ef;fontColor=#ffffff;strokeColor=#001DBC;" vertex="1" parent="1">
          <mxGeometry x="12" y="588.5" width="80" height="30" as="geometry" />
        </mxCell>
        <mxCell id="l0D77ogCcX58pLdkU1v_-7" value="coordenadas" style="ellipse;whiteSpace=wrap;html=1;align=center;fillColor=#0050ef;fontColor=#ffffff;strokeColor=#001DBC;" vertex="1" parent="1">
          <mxGeometry x="12" y="398.5" width="90" height="30" as="geometry" />
        </mxCell>
        <mxCell id="l0D77ogCcX58pLdkU1v_-8" value="latitude" style="ellipse;whiteSpace=wrap;html=1;align=center;fillColor=#6a00ff;fontColor=#ffffff;strokeColor=#3700CC;" vertex="1" parent="1">
          <mxGeometry x="82" y="338.5" width="50" height="30" as="geometry" />
        </mxCell>
        <mxCell id="l0D77ogCcX58pLdkU1v_-9" value="longitude" style="ellipse;whiteSpace=wrap;html=1;align=center;fillColor=#6a00ff;fontColor=#ffffff;strokeColor=#3700CC;" vertex="1" parent="1">
          <mxGeometry x="12" y="338.5" width="65" height="30" as="geometry" />
        </mxCell>
        <mxCell id="l0D77ogCcX58pLdkU1v_-37" style="edgeStyle=orthogonalEdgeStyle;rounded=0;orthogonalLoop=1;jettySize=auto;html=1;entryX=0;entryY=0.5;entryDx=0;entryDy=0;curved=1;" edge="1" parent="1" source="l0D77ogCcX58pLdkU1v_-20" target="l0D77ogCcX58pLdkU1v_-33">
          <mxGeometry relative="1" as="geometry" />
        </mxCell>
        <mxCell id="l0D77ogCcX58pLdkU1v_-150" style="edgeStyle=orthogonalEdgeStyle;rounded=0;orthogonalLoop=1;jettySize=auto;html=1;entryX=0;entryY=0.5;entryDx=0;entryDy=0;curved=1;" edge="1" parent="1" source="l0D77ogCcX58pLdkU1v_-20" target="l0D77ogCcX58pLdkU1v_-22">
          <mxGeometry relative="1" as="geometry" />
        </mxCell>
        <mxCell id="l0D77ogCcX58pLdkU1v_-20" value="Personagem" style="whiteSpace=wrap;html=1;align=center;fillColor=#60a917;fontColor=#ffffff;strokeColor=#2D7600;" vertex="1" parent="1">
          <mxGeometry x="772" y="364" width="80" height="30" as="geometry" />
        </mxCell>
        <mxCell id="l0D77ogCcX58pLdkU1v_-22" value="sexo" style="ellipse;whiteSpace=wrap;html=1;align=center;fillColor=#0050ef;fontColor=#ffffff;strokeColor=#001DBC;" vertex="1" parent="1">
          <mxGeometry x="917" y="269" width="50" height="20" as="geometry" />
        </mxCell>
        <mxCell id="l0D77ogCcX58pLdkU1v_-23" value="idLocal" style="ellipse;whiteSpace=wrap;html=1;align=center;fontStyle=4;fillColor=#0050ef;fontColor=#ffffff;strokeColor=#001DBC;" vertex="1" parent="1">
          <mxGeometry x="12" y="438.5" width="60" height="30" as="geometry" />
        </mxCell>
        <mxCell id="l0D77ogCcX58pLdkU1v_-25" style="rounded=0;orthogonalLoop=1;jettySize=auto;html=1;entryX=0.462;entryY=1;entryDx=0;entryDy=0;entryPerimeter=0;" edge="1" parent="1" source="l0D77ogCcX58pLdkU1v_-7" target="l0D77ogCcX58pLdkU1v_-9">
          <mxGeometry relative="1" as="geometry" />
        </mxCell>
        <mxCell id="l0D77ogCcX58pLdkU1v_-26" style="rounded=0;orthogonalLoop=1;jettySize=auto;html=1;entryX=0.4;entryY=1;entryDx=0;entryDy=0;entryPerimeter=0;" edge="1" parent="1" source="l0D77ogCcX58pLdkU1v_-7" target="l0D77ogCcX58pLdkU1v_-8">
          <mxGeometry relative="1" as="geometry" />
        </mxCell>
        <mxCell id="l0D77ogCcX58pLdkU1v_-27" style="edgeStyle=orthogonalEdgeStyle;rounded=0;orthogonalLoop=1;jettySize=auto;html=1;entryX=1;entryY=0.667;entryDx=0;entryDy=0;entryPerimeter=0;curved=1;" edge="1" parent="1" source="l0D77ogCcX58pLdkU1v_-1" target="l0D77ogCcX58pLdkU1v_-7">
          <mxGeometry relative="1" as="geometry" />
        </mxCell>
        <mxCell id="l0D77ogCcX58pLdkU1v_-29" style="edgeStyle=orthogonalEdgeStyle;rounded=0;orthogonalLoop=1;jettySize=auto;html=1;entryX=1;entryY=0.333;entryDx=0;entryDy=0;entryPerimeter=0;curved=1;" edge="1" parent="1" source="l0D77ogCcX58pLdkU1v_-1" target="l0D77ogCcX58pLdkU1v_-3">
          <mxGeometry relative="1" as="geometry" />
        </mxCell>
        <mxCell id="l0D77ogCcX58pLdkU1v_-30" style="edgeStyle=orthogonalEdgeStyle;rounded=0;orthogonalLoop=1;jettySize=auto;html=1;entryX=1;entryY=0.417;entryDx=0;entryDy=0;entryPerimeter=0;curved=1;" edge="1" parent="1" source="l0D77ogCcX58pLdkU1v_-1" target="l0D77ogCcX58pLdkU1v_-4">
          <mxGeometry relative="1" as="geometry" />
        </mxCell>
        <mxCell id="l0D77ogCcX58pLdkU1v_-32" style="edgeStyle=orthogonalEdgeStyle;rounded=0;orthogonalLoop=1;jettySize=auto;html=1;entryX=1;entryY=0.667;entryDx=0;entryDy=0;entryPerimeter=0;curved=1;" edge="1" parent="1" source="l0D77ogCcX58pLdkU1v_-1" target="l0D77ogCcX58pLdkU1v_-6">
          <mxGeometry relative="1" as="geometry" />
        </mxCell>
        <mxCell id="l0D77ogCcX58pLdkU1v_-33" value="nome" style="ellipse;whiteSpace=wrap;html=1;align=center;fillColor=#0050ef;fontColor=#ffffff;strokeColor=#001DBC;" vertex="1" parent="1">
          <mxGeometry x="917" y="299" width="50" height="20" as="geometry" />
        </mxCell>
        <mxCell id="l0D77ogCcX58pLdkU1v_-34" value="idPersonagem" style="ellipse;whiteSpace=wrap;html=1;align=center;fontStyle=4;fillColor=#0050ef;fontColor=#ffffff;strokeColor=#001DBC;" vertex="1" parent="1">
          <mxGeometry x="917" y="329" width="90" height="30" as="geometry" />
        </mxCell>
        <mxCell id="l0D77ogCcX58pLdkU1v_-35" value="descricao" style="ellipse;whiteSpace=wrap;html=1;align=center;fillColor=#0050ef;fontColor=#ffffff;strokeColor=#001DBC;" vertex="1" parent="1">
          <mxGeometry x="917" y="364" width="60" height="20" as="geometry" />
        </mxCell>
        <mxCell id="l0D77ogCcX58pLdkU1v_-38" style="edgeStyle=orthogonalEdgeStyle;rounded=0;orthogonalLoop=1;jettySize=auto;html=1;entryX=0;entryY=0.667;entryDx=0;entryDy=0;entryPerimeter=0;curved=1;" edge="1" parent="1" source="l0D77ogCcX58pLdkU1v_-20" target="l0D77ogCcX58pLdkU1v_-34">
          <mxGeometry relative="1" as="geometry" />
        </mxCell>
        <mxCell id="l0D77ogCcX58pLdkU1v_-39" style="edgeStyle=orthogonalEdgeStyle;rounded=0;orthogonalLoop=1;jettySize=auto;html=1;entryX=0;entryY=0.75;entryDx=0;entryDy=0;entryPerimeter=0;curved=1;" edge="1" parent="1" source="l0D77ogCcX58pLdkU1v_-20" target="l0D77ogCcX58pLdkU1v_-35">
          <mxGeometry relative="1" as="geometry" />
        </mxCell>
        <mxCell id="l0D77ogCcX58pLdkU1v_-175" style="edgeStyle=orthogonalEdgeStyle;rounded=0;orthogonalLoop=1;jettySize=auto;html=1;exitX=0;exitY=1;exitDx=0;exitDy=0;entryX=0;entryY=0.5;entryDx=0;entryDy=0;curved=1;" edge="1" parent="1" source="l0D77ogCcX58pLdkU1v_-40" target="l0D77ogCcX58pLdkU1v_-42">
          <mxGeometry relative="1" as="geometry" />
        </mxCell>
        <mxCell id="l0D77ogCcX58pLdkU1v_-178" style="edgeStyle=orthogonalEdgeStyle;rounded=0;orthogonalLoop=1;jettySize=auto;html=1;exitX=0;exitY=0;exitDx=0;exitDy=0;entryX=1;entryY=0.5;entryDx=0;entryDy=0;curved=1;" edge="1" parent="1" source="l0D77ogCcX58pLdkU1v_-40" target="l0D77ogCcX58pLdkU1v_-45">
          <mxGeometry relative="1" as="geometry">
            <Array as="points">
              <mxPoint x="812" y="629" />
              <mxPoint x="812" y="619" />
              <mxPoint x="785" y="619" />
            </Array>
          </mxGeometry>
        </mxCell>
        <mxCell id="l0D77ogCcX58pLdkU1v_-180" style="edgeStyle=orthogonalEdgeStyle;rounded=0;orthogonalLoop=1;jettySize=auto;html=1;exitX=0;exitY=0.5;exitDx=0;exitDy=0;entryX=1;entryY=0.5;entryDx=0;entryDy=0;curved=1;" edge="1" parent="1" source="l0D77ogCcX58pLdkU1v_-40" target="l0D77ogCcX58pLdkU1v_-43">
          <mxGeometry relative="1" as="geometry" />
        </mxCell>
        <mxCell id="l0D77ogCcX58pLdkU1v_-305" style="edgeStyle=orthogonalEdgeStyle;rounded=0;orthogonalLoop=1;jettySize=auto;html=1;exitX=0;exitY=0;exitDx=0;exitDy=0;entryX=0.5;entryY=1;entryDx=0;entryDy=0;curved=1;" edge="1" parent="1" source="l0D77ogCcX58pLdkU1v_-40" target="l0D77ogCcX58pLdkU1v_-44">
          <mxGeometry relative="1" as="geometry" />
        </mxCell>
        <mxCell id="l0D77ogCcX58pLdkU1v_-40" value="tecnica_Dobra" style="whiteSpace=wrap;html=1;align=center;fillColor=#60a917;fontColor=#ffffff;strokeColor=#2D7600;" vertex="1" parent="1">
          <mxGeometry x="806" y="629" width="90" height="20" as="geometry" />
        </mxCell>
        <mxCell id="l0D77ogCcX58pLdkU1v_-42" value="raridade" style="ellipse;whiteSpace=wrap;html=1;align=center;fillColor=#0050ef;fontColor=#ffffff;strokeColor=#001DBC;" vertex="1" parent="1">
          <mxGeometry x="792" y="659" width="70" height="20" as="geometry" />
        </mxCell>
        <mxCell id="l0D77ogCcX58pLdkU1v_-43" value="nome_tec" style="ellipse;whiteSpace=wrap;html=1;align=center;fillColor=#0050ef;fontColor=#ffffff;strokeColor=#001DBC;" vertex="1" parent="1">
          <mxGeometry x="711" y="639" width="70" height="20" as="geometry" />
        </mxCell>
        <mxCell id="l0D77ogCcX58pLdkU1v_-44" value="idTec" style="ellipse;whiteSpace=wrap;html=1;align=center;fontStyle=4;fillColor=#0050ef;fontColor=#ffffff;strokeColor=#001DBC;" vertex="1" parent="1">
          <mxGeometry x="792" y="593" width="50" height="20" as="geometry" />
        </mxCell>
        <mxCell id="l0D77ogCcX58pLdkU1v_-45" value="descricao" style="ellipse;whiteSpace=wrap;html=1;align=center;fillColor=#0050ef;fontColor=#ffffff;strokeColor=#001DBC;" vertex="1" parent="1">
          <mxGeometry x="715" y="613.5" width="70" height="20" as="geometry" />
        </mxCell>
        <mxCell id="l0D77ogCcX58pLdkU1v_-56" style="edgeStyle=orthogonalEdgeStyle;rounded=0;orthogonalLoop=1;jettySize=auto;html=1;" edge="1" parent="1" source="l0D77ogCcX58pLdkU1v_-50" target="l0D77ogCcX58pLdkU1v_-52">
          <mxGeometry relative="1" as="geometry" />
        </mxCell>
        <mxCell id="l0D77ogCcX58pLdkU1v_-59" style="edgeStyle=orthogonalEdgeStyle;rounded=0;orthogonalLoop=1;jettySize=auto;html=1;entryX=1;entryY=0.5;entryDx=0;entryDy=0;curved=1;" edge="1" parent="1" source="l0D77ogCcX58pLdkU1v_-50" target="l0D77ogCcX58pLdkU1v_-54">
          <mxGeometry relative="1" as="geometry" />
        </mxCell>
        <mxCell id="l0D77ogCcX58pLdkU1v_-50" value="nacao" style="whiteSpace=wrap;html=1;align=center;fillColor=#60a917;fontColor=#ffffff;strokeColor=#2D7600;" vertex="1" parent="1">
          <mxGeometry x="517" y="349.25" width="50" height="20" as="geometry" />
        </mxCell>
        <mxCell id="l0D77ogCcX58pLdkU1v_-51" value="idNacao" style="ellipse;whiteSpace=wrap;html=1;align=center;fontStyle=4;fillColor=#0050ef;fontColor=#ffffff;strokeColor=#001DBC;" vertex="1" parent="1">
          <mxGeometry x="392" y="274.25" width="60" height="20" as="geometry" />
        </mxCell>
        <mxCell id="l0D77ogCcX58pLdkU1v_-52" value="cultura" style="ellipse;whiteSpace=wrap;html=1;align=center;fillColor=#0050ef;fontColor=#ffffff;strokeColor=#001DBC;" vertex="1" parent="1">
          <mxGeometry x="402" y="299.25" width="50" height="20" as="geometry" />
        </mxCell>
        <mxCell id="l0D77ogCcX58pLdkU1v_-53" value="nome" style="ellipse;whiteSpace=wrap;html=1;align=center;fillColor=#0050ef;fontColor=#ffffff;strokeColor=#001DBC;" vertex="1" parent="1">
          <mxGeometry x="402" y="324.25" width="50" height="20" as="geometry" />
        </mxCell>
        <mxCell id="l0D77ogCcX58pLdkU1v_-63" style="edgeStyle=orthogonalEdgeStyle;rounded=0;orthogonalLoop=1;jettySize=auto;html=1;entryX=1;entryY=0.5;entryDx=0;entryDy=0;curved=1;" edge="1" parent="1" source="l0D77ogCcX58pLdkU1v_-54" target="l0D77ogCcX58pLdkU1v_-61">
          <mxGeometry relative="1" as="geometry" />
        </mxCell>
        <mxCell id="l0D77ogCcX58pLdkU1v_-64" style="edgeStyle=orthogonalEdgeStyle;rounded=0;orthogonalLoop=1;jettySize=auto;html=1;curved=1;" edge="1" parent="1" source="l0D77ogCcX58pLdkU1v_-54" target="l0D77ogCcX58pLdkU1v_-62">
          <mxGeometry relative="1" as="geometry" />
        </mxCell>
        <mxCell id="l0D77ogCcX58pLdkU1v_-54" value="localizacao" style="ellipse;whiteSpace=wrap;html=1;align=center;fillColor=#0050ef;fontColor=#ffffff;strokeColor=#001DBC;" vertex="1" parent="1">
          <mxGeometry x="382" y="349.25" width="70" height="20" as="geometry" />
        </mxCell>
        <mxCell id="l0D77ogCcX58pLdkU1v_-55" style="edgeStyle=orthogonalEdgeStyle;rounded=0;orthogonalLoop=1;jettySize=auto;html=1;entryX=1;entryY=0.75;entryDx=0;entryDy=0;entryPerimeter=0;curved=1;" edge="1" parent="1" source="l0D77ogCcX58pLdkU1v_-50" target="l0D77ogCcX58pLdkU1v_-51">
          <mxGeometry relative="1" as="geometry" />
        </mxCell>
        <mxCell id="l0D77ogCcX58pLdkU1v_-57" style="edgeStyle=orthogonalEdgeStyle;rounded=0;orthogonalLoop=1;jettySize=auto;html=1;entryX=1;entryY=0.5;entryDx=0;entryDy=0;curved=1;" edge="1" parent="1" source="l0D77ogCcX58pLdkU1v_-50" target="l0D77ogCcX58pLdkU1v_-53">
          <mxGeometry relative="1" as="geometry" />
        </mxCell>
        <mxCell id="l0D77ogCcX58pLdkU1v_-61" value="continente" style="ellipse;whiteSpace=wrap;html=1;align=center;fillColor=#6a00ff;fontColor=#ffffff;strokeColor=#3700CC;" vertex="1" parent="1">
          <mxGeometry x="252" y="329.25" width="70" height="20" as="geometry" />
        </mxCell>
        <mxCell id="l0D77ogCcX58pLdkU1v_-62" value="regiao" style="ellipse;whiteSpace=wrap;html=1;align=center;fillColor=#6a00ff;fontColor=#ffffff;strokeColor=#3700CC;" vertex="1" parent="1">
          <mxGeometry x="252" y="359.25" width="60" height="20" as="geometry" />
        </mxCell>
        <mxCell id="l0D77ogCcX58pLdkU1v_-65" style="edgeStyle=orthogonalEdgeStyle;rounded=0;orthogonalLoop=1;jettySize=auto;html=1;curved=1;" edge="1" parent="1" source="l0D77ogCcX58pLdkU1v_-67" target="l0D77ogCcX58pLdkU1v_-69">
          <mxGeometry relative="1" as="geometry" />
        </mxCell>
        <mxCell id="l0D77ogCcX58pLdkU1v_-66" style="edgeStyle=orthogonalEdgeStyle;rounded=0;orthogonalLoop=1;jettySize=auto;html=1;entryX=1;entryY=0.5;entryDx=0;entryDy=0;curved=1;" edge="1" parent="1" source="l0D77ogCcX58pLdkU1v_-67" target="l0D77ogCcX58pLdkU1v_-73">
          <mxGeometry relative="1" as="geometry" />
        </mxCell>
        <mxCell id="l0D77ogCcX58pLdkU1v_-80" style="edgeStyle=orthogonalEdgeStyle;rounded=0;orthogonalLoop=1;jettySize=auto;html=1;entryX=1;entryY=0.5;entryDx=0;entryDy=0;curved=1;" edge="1" parent="1" source="l0D77ogCcX58pLdkU1v_-67" target="l0D77ogCcX58pLdkU1v_-79">
          <mxGeometry relative="1" as="geometry" />
        </mxCell>
        <mxCell id="l0D77ogCcX58pLdkU1v_-67" value="evento" style="whiteSpace=wrap;html=1;align=center;fillColor=#60a917;fontColor=#ffffff;strokeColor=#2D7600;" vertex="1" parent="1">
          <mxGeometry x="217" y="236.75" width="50" height="20" as="geometry" />
        </mxCell>
        <mxCell id="l0D77ogCcX58pLdkU1v_-68" value="idEvento" style="ellipse;whiteSpace=wrap;html=1;align=center;fontStyle=4;fillColor=#0050ef;fontColor=#ffffff;strokeColor=#001DBC;" vertex="1" parent="1">
          <mxGeometry x="107" y="191.75" width="60" height="20" as="geometry" />
        </mxCell>
        <mxCell id="l0D77ogCcX58pLdkU1v_-69" value="descricao" style="ellipse;whiteSpace=wrap;html=1;align=center;fillColor=#0050ef;fontColor=#ffffff;strokeColor=#001DBC;" vertex="1" parent="1">
          <mxGeometry x="107" y="216.75" width="60" height="20" as="geometry" />
        </mxCell>
        <mxCell id="l0D77ogCcX58pLdkU1v_-70" value="nome" style="ellipse;whiteSpace=wrap;html=1;align=center;fillColor=#0050ef;fontColor=#ffffff;strokeColor=#001DBC;" vertex="1" parent="1">
          <mxGeometry x="117" y="241.75" width="50" height="20" as="geometry" />
        </mxCell>
        <mxCell id="l0D77ogCcX58pLdkU1v_-71" style="edgeStyle=orthogonalEdgeStyle;rounded=0;orthogonalLoop=1;jettySize=auto;html=1;entryX=1;entryY=0.5;entryDx=0;entryDy=0;curved=1;" edge="1" parent="1" source="l0D77ogCcX58pLdkU1v_-73" target="l0D77ogCcX58pLdkU1v_-76">
          <mxGeometry relative="1" as="geometry" />
        </mxCell>
        <mxCell id="l0D77ogCcX58pLdkU1v_-72" style="edgeStyle=orthogonalEdgeStyle;rounded=0;orthogonalLoop=1;jettySize=auto;html=1;curved=1;" edge="1" parent="1" source="l0D77ogCcX58pLdkU1v_-73" target="l0D77ogCcX58pLdkU1v_-77">
          <mxGeometry relative="1" as="geometry" />
        </mxCell>
        <mxCell id="l0D77ogCcX58pLdkU1v_-73" value="data_E" style="ellipse;whiteSpace=wrap;html=1;align=center;fillColor=#0050ef;fontColor=#ffffff;strokeColor=#001DBC;" vertex="1" parent="1">
          <mxGeometry x="97" y="266.75" width="70" height="20" as="geometry" />
        </mxCell>
        <mxCell id="l0D77ogCcX58pLdkU1v_-74" style="edgeStyle=orthogonalEdgeStyle;rounded=0;orthogonalLoop=1;jettySize=auto;html=1;entryX=1;entryY=0.75;entryDx=0;entryDy=0;entryPerimeter=0;curved=1;" edge="1" parent="1" source="l0D77ogCcX58pLdkU1v_-67" target="l0D77ogCcX58pLdkU1v_-68">
          <mxGeometry relative="1" as="geometry" />
        </mxCell>
        <mxCell id="l0D77ogCcX58pLdkU1v_-75" style="edgeStyle=orthogonalEdgeStyle;rounded=0;orthogonalLoop=1;jettySize=auto;html=1;entryX=1;entryY=0.5;entryDx=0;entryDy=0;curved=1;" edge="1" parent="1" source="l0D77ogCcX58pLdkU1v_-67" target="l0D77ogCcX58pLdkU1v_-70">
          <mxGeometry relative="1" as="geometry" />
        </mxCell>
        <mxCell id="l0D77ogCcX58pLdkU1v_-76" value="data" style="ellipse;whiteSpace=wrap;html=1;align=center;fillColor=#6a00ff;fontColor=#ffffff;strokeColor=#3700CC;" vertex="1" parent="1">
          <mxGeometry x="12" y="253" width="50" height="20" as="geometry" />
        </mxCell>
        <mxCell id="l0D77ogCcX58pLdkU1v_-77" value="perDia" style="ellipse;whiteSpace=wrap;html=1;align=center;fillColor=#6a00ff;fontColor=#ffffff;strokeColor=#3700CC;" vertex="1" parent="1">
          <mxGeometry x="2" y="280.5" width="60" height="20" as="geometry" />
        </mxCell>
        <mxCell id="l0D77ogCcX58pLdkU1v_-79" value="conseq" style="ellipse;shape=doubleEllipse;margin=3;whiteSpace=wrap;html=1;align=center;fillColor=#0050ef;fontColor=#ffffff;strokeColor=#001DBC;" vertex="1" parent="1">
          <mxGeometry x="107" y="294.25" width="60" height="30" as="geometry" />
        </mxCell>
        <mxCell id="l0D77ogCcX58pLdkU1v_-81" style="edgeStyle=orthogonalEdgeStyle;rounded=0;orthogonalLoop=1;jettySize=auto;html=1;entryX=1;entryY=0.5;entryDx=0;entryDy=0;curved=1;" edge="1" parent="1" source="l0D77ogCcX58pLdkU1v_-85" target="l0D77ogCcX58pLdkU1v_-88">
          <mxGeometry relative="1" as="geometry" />
        </mxCell>
        <mxCell id="l0D77ogCcX58pLdkU1v_-82" style="edgeStyle=orthogonalEdgeStyle;rounded=0;orthogonalLoop=1;jettySize=auto;html=1;entryX=0;entryY=0.5;entryDx=0;entryDy=0;curved=1;" edge="1" parent="1" source="l0D77ogCcX58pLdkU1v_-85" target="l0D77ogCcX58pLdkU1v_-89">
          <mxGeometry relative="1" as="geometry" />
        </mxCell>
        <mxCell id="l0D77ogCcX58pLdkU1v_-83" style="edgeStyle=orthogonalEdgeStyle;rounded=0;orthogonalLoop=1;jettySize=auto;html=1;entryX=0.5;entryY=0;entryDx=0;entryDy=0;curved=1;" edge="1" parent="1" source="l0D77ogCcX58pLdkU1v_-85" target="l0D77ogCcX58pLdkU1v_-87">
          <mxGeometry relative="1" as="geometry" />
        </mxCell>
        <mxCell id="l0D77ogCcX58pLdkU1v_-85" value="meio_transporte" style="whiteSpace=wrap;html=1;align=center;fillColor=#60a917;fontColor=#ffffff;strokeColor=#2D7600;" vertex="1" parent="1">
          <mxGeometry x="284" y="467" width="100" height="20" as="geometry" />
        </mxCell>
        <mxCell id="l0D77ogCcX58pLdkU1v_-87" value="tipo" style="ellipse;whiteSpace=wrap;html=1;align=center;fillColor=#0050ef;fontColor=#ffffff;strokeColor=#001DBC;" vertex="1" parent="1">
          <mxGeometry x="309" y="524" width="50" height="20" as="geometry" />
        </mxCell>
        <mxCell id="l0D77ogCcX58pLdkU1v_-88" value="idMeioT" style="ellipse;whiteSpace=wrap;html=1;align=center;fontStyle=4;fillColor=#0050ef;fontColor=#ffffff;strokeColor=#001DBC;" vertex="1" parent="1">
          <mxGeometry x="249" y="497" width="70" height="20" as="geometry" />
        </mxCell>
        <mxCell id="l0D77ogCcX58pLdkU1v_-89" value="nome" style="ellipse;whiteSpace=wrap;html=1;align=center;fillColor=#0050ef;fontColor=#ffffff;strokeColor=#001DBC;" vertex="1" parent="1">
          <mxGeometry x="349" y="497" width="60" height="20" as="geometry" />
        </mxCell>
        <mxCell id="l0D77ogCcX58pLdkU1v_-97" style="edgeStyle=orthogonalEdgeStyle;rounded=0;orthogonalLoop=1;jettySize=auto;html=1;entryX=0;entryY=0.5;entryDx=0;entryDy=0;curved=1;" edge="1" parent="1" source="l0D77ogCcX58pLdkU1v_-100" target="l0D77ogCcX58pLdkU1v_-102">
          <mxGeometry relative="1" as="geometry" />
        </mxCell>
        <mxCell id="l0D77ogCcX58pLdkU1v_-98" style="edgeStyle=orthogonalEdgeStyle;rounded=0;orthogonalLoop=1;jettySize=auto;html=1;entryX=0;entryY=0.5;entryDx=0;entryDy=0;curved=1;" edge="1" parent="1" source="l0D77ogCcX58pLdkU1v_-100" target="l0D77ogCcX58pLdkU1v_-103">
          <mxGeometry relative="1" as="geometry" />
        </mxCell>
        <mxCell id="l0D77ogCcX58pLdkU1v_-99" style="edgeStyle=orthogonalEdgeStyle;rounded=0;orthogonalLoop=1;jettySize=auto;html=1;entryX=0;entryY=0.5;entryDx=0;entryDy=0;curved=1;" edge="1" parent="1" source="l0D77ogCcX58pLdkU1v_-100" target="l0D77ogCcX58pLdkU1v_-101">
          <mxGeometry relative="1" as="geometry" />
        </mxCell>
        <mxCell id="l0D77ogCcX58pLdkU1v_-105" style="edgeStyle=orthogonalEdgeStyle;rounded=0;orthogonalLoop=1;jettySize=auto;html=1;entryX=0;entryY=0.5;entryDx=0;entryDy=0;curved=1;" edge="1" parent="1" source="l0D77ogCcX58pLdkU1v_-100" target="l0D77ogCcX58pLdkU1v_-104">
          <mxGeometry relative="1" as="geometry" />
        </mxCell>
        <mxCell id="l0D77ogCcX58pLdkU1v_-100" value="conflito" style="whiteSpace=wrap;html=1;align=center;fillColor=#60a917;fontColor=#ffffff;strokeColor=#2D7600;" vertex="1" parent="1">
          <mxGeometry x="462" y="236.5" width="50" height="20" as="geometry" />
        </mxCell>
        <mxCell id="l0D77ogCcX58pLdkU1v_-101" value="descricao" style="ellipse;whiteSpace=wrap;html=1;align=center;fillColor=#0050ef;fontColor=#ffffff;strokeColor=#001DBC;" vertex="1" parent="1">
          <mxGeometry x="555" y="186.5" width="80" height="20" as="geometry" />
        </mxCell>
        <mxCell id="l0D77ogCcX58pLdkU1v_-102" value="idConflito" style="ellipse;whiteSpace=wrap;html=1;align=center;fontStyle=4;fillColor=#0050ef;fontColor=#ffffff;strokeColor=#001DBC;" vertex="1" parent="1">
          <mxGeometry x="555" y="126.5" width="70" height="20" as="geometry" />
        </mxCell>
        <mxCell id="l0D77ogCcX58pLdkU1v_-103" value="nome" style="ellipse;whiteSpace=wrap;html=1;align=center;fillColor=#0050ef;fontColor=#ffffff;strokeColor=#001DBC;" vertex="1" parent="1">
          <mxGeometry x="555" y="156.5" width="60" height="20" as="geometry" />
        </mxCell>
        <mxCell id="l0D77ogCcX58pLdkU1v_-108" style="edgeStyle=orthogonalEdgeStyle;rounded=0;orthogonalLoop=1;jettySize=auto;html=1;entryX=0;entryY=0.5;entryDx=0;entryDy=0;curved=1;" edge="1" parent="1" source="l0D77ogCcX58pLdkU1v_-104" target="l0D77ogCcX58pLdkU1v_-106">
          <mxGeometry relative="1" as="geometry" />
        </mxCell>
        <mxCell id="l0D77ogCcX58pLdkU1v_-104" value="perGeral" style="ellipse;whiteSpace=wrap;html=1;align=center;fillColor=#0050ef;fontColor=#ffffff;strokeColor=#001DBC;" vertex="1" parent="1">
          <mxGeometry x="555" y="216.5" width="70" height="20" as="geometry" />
        </mxCell>
        <mxCell id="l0D77ogCcX58pLdkU1v_-106" value="dataI" style="ellipse;whiteSpace=wrap;html=1;align=center;fillColor=#6a00ff;fontColor=#ffffff;strokeColor=#3700CC;" vertex="1" parent="1">
          <mxGeometry x="665" y="186.5" width="50" height="20" as="geometry" />
        </mxCell>
        <mxCell id="l0D77ogCcX58pLdkU1v_-107" value="dataF" style="ellipse;whiteSpace=wrap;html=1;align=center;fillColor=#6a00ff;fontColor=#ffffff;strokeColor=#3700CC;" vertex="1" parent="1">
          <mxGeometry x="665" y="216.5" width="50" height="20" as="geometry" />
        </mxCell>
        <mxCell id="l0D77ogCcX58pLdkU1v_-109" style="edgeStyle=orthogonalEdgeStyle;rounded=0;orthogonalLoop=1;jettySize=auto;html=1;entryX=-0.03;entryY=0.527;entryDx=0;entryDy=0;entryPerimeter=0;curved=1;" edge="1" parent="1" source="l0D77ogCcX58pLdkU1v_-104" target="l0D77ogCcX58pLdkU1v_-107">
          <mxGeometry relative="1" as="geometry" />
        </mxCell>
        <mxCell id="l0D77ogCcX58pLdkU1v_-110" style="edgeStyle=orthogonalEdgeStyle;rounded=0;orthogonalLoop=1;jettySize=auto;html=1;entryX=0;entryY=0.5;entryDx=0;entryDy=0;curved=1;" edge="1" parent="1" source="l0D77ogCcX58pLdkU1v_-114" target="l0D77ogCcX58pLdkU1v_-116">
          <mxGeometry relative="1" as="geometry" />
        </mxCell>
        <mxCell id="l0D77ogCcX58pLdkU1v_-111" style="edgeStyle=orthogonalEdgeStyle;rounded=0;orthogonalLoop=1;jettySize=auto;html=1;entryX=0;entryY=0.5;entryDx=0;entryDy=0;curved=1;" edge="1" parent="1" source="l0D77ogCcX58pLdkU1v_-114" target="l0D77ogCcX58pLdkU1v_-117">
          <mxGeometry relative="1" as="geometry" />
        </mxCell>
        <mxCell id="l0D77ogCcX58pLdkU1v_-112" style="edgeStyle=orthogonalEdgeStyle;rounded=0;orthogonalLoop=1;jettySize=auto;html=1;entryX=0;entryY=0.5;entryDx=0;entryDy=0;curved=1;" edge="1" parent="1" source="l0D77ogCcX58pLdkU1v_-114" target="l0D77ogCcX58pLdkU1v_-115">
          <mxGeometry relative="1" as="geometry" />
        </mxCell>
        <mxCell id="l0D77ogCcX58pLdkU1v_-113" style="edgeStyle=orthogonalEdgeStyle;rounded=0;orthogonalLoop=1;jettySize=auto;html=1;entryX=0;entryY=0.5;entryDx=0;entryDy=0;curved=1;" edge="1" parent="1" source="l0D77ogCcX58pLdkU1v_-114" target="l0D77ogCcX58pLdkU1v_-119">
          <mxGeometry relative="1" as="geometry" />
        </mxCell>
        <mxCell id="l0D77ogCcX58pLdkU1v_-124" style="edgeStyle=orthogonalEdgeStyle;rounded=0;orthogonalLoop=1;jettySize=auto;html=1;entryX=0;entryY=0.5;entryDx=0;entryDy=0;curved=1;" edge="1" parent="1" source="l0D77ogCcX58pLdkU1v_-114" target="l0D77ogCcX58pLdkU1v_-123">
          <mxGeometry relative="1" as="geometry" />
        </mxCell>
        <mxCell id="l0D77ogCcX58pLdkU1v_-114" value="relacionamento" style="whiteSpace=wrap;html=1;align=center;fillColor=#60a917;fontColor=#ffffff;strokeColor=#2D7600;" vertex="1" parent="1">
          <mxGeometry x="767" y="221.75" width="90" height="20" as="geometry" />
        </mxCell>
        <mxCell id="l0D77ogCcX58pLdkU1v_-115" value="status" style="ellipse;whiteSpace=wrap;html=1;align=center;fillColor=#0050ef;fontColor=#ffffff;strokeColor=#001DBC;" vertex="1" parent="1">
          <mxGeometry x="897" y="191.75" width="60" height="20" as="geometry" />
        </mxCell>
        <mxCell id="l0D77ogCcX58pLdkU1v_-116" value="idRelac" style="ellipse;whiteSpace=wrap;html=1;align=center;fontStyle=4;fillColor=#0050ef;fontColor=#ffffff;strokeColor=#001DBC;" vertex="1" parent="1">
          <mxGeometry x="897" y="131.75" width="70" height="20" as="geometry" />
        </mxCell>
        <mxCell id="l0D77ogCcX58pLdkU1v_-117" value="tipoRelac" style="ellipse;whiteSpace=wrap;html=1;align=center;fillColor=#0050ef;fontColor=#ffffff;strokeColor=#001DBC;" vertex="1" parent="1">
          <mxGeometry x="897" y="161.75" width="60" height="20" as="geometry" />
        </mxCell>
        <mxCell id="l0D77ogCcX58pLdkU1v_-119" value="dataI" style="ellipse;whiteSpace=wrap;html=1;align=center;fillColor=#0050ef;fontColor=#ffffff;strokeColor=#001DBC;" vertex="1" parent="1">
          <mxGeometry x="897" y="221.75" width="50" height="20" as="geometry" />
        </mxCell>
        <mxCell id="l0D77ogCcX58pLdkU1v_-123" value="status" style="ellipse;whiteSpace=wrap;html=1;align=center;fillColor=#0050ef;fontColor=#ffffff;strokeColor=#001DBC;" vertex="1" parent="1">
          <mxGeometry x="897" y="101.75" width="60" height="20" as="geometry" />
        </mxCell>
        <mxCell id="l0D77ogCcX58pLdkU1v_-125" style="edgeStyle=orthogonalEdgeStyle;rounded=0;orthogonalLoop=1;jettySize=auto;html=1;entryX=0;entryY=0.5;entryDx=0;entryDy=0;curved=1;" edge="1" parent="1" source="l0D77ogCcX58pLdkU1v_-130" target="l0D77ogCcX58pLdkU1v_-132">
          <mxGeometry relative="1" as="geometry" />
        </mxCell>
        <mxCell id="l0D77ogCcX58pLdkU1v_-126" style="edgeStyle=orthogonalEdgeStyle;rounded=0;orthogonalLoop=1;jettySize=auto;html=1;entryX=0;entryY=0.5;entryDx=0;entryDy=0;curved=1;" edge="1" parent="1" source="l0D77ogCcX58pLdkU1v_-130" target="l0D77ogCcX58pLdkU1v_-133">
          <mxGeometry relative="1" as="geometry" />
        </mxCell>
        <mxCell id="l0D77ogCcX58pLdkU1v_-129" style="edgeStyle=orthogonalEdgeStyle;rounded=0;orthogonalLoop=1;jettySize=auto;html=1;entryX=0;entryY=0.5;entryDx=0;entryDy=0;curved=1;" edge="1" parent="1" source="l0D77ogCcX58pLdkU1v_-130" target="l0D77ogCcX58pLdkU1v_-135">
          <mxGeometry relative="1" as="geometry" />
        </mxCell>
        <mxCell id="l0D77ogCcX58pLdkU1v_-130" value="hab_elemental" style="whiteSpace=wrap;html=1;align=center;fillColor=#60a917;fontColor=#ffffff;strokeColor=#2D7600;" vertex="1" parent="1">
          <mxGeometry x="937" y="549" width="90" height="20" as="geometry" />
        </mxCell>
        <mxCell id="l0D77ogCcX58pLdkU1v_-132" value="idElemento" style="ellipse;whiteSpace=wrap;html=1;align=center;fontStyle=4;fillColor=#0050ef;fontColor=#ffffff;strokeColor=#001DBC;" vertex="1" parent="1">
          <mxGeometry x="1072" y="549" width="90" height="20" as="geometry" />
        </mxCell>
        <mxCell id="l0D77ogCcX58pLdkU1v_-133" value="descElem" style="ellipse;whiteSpace=wrap;html=1;align=center;fillColor=#0050ef;fontColor=#ffffff;strokeColor=#001DBC;" vertex="1" parent="1">
          <mxGeometry x="1072" y="579" width="70" height="20" as="geometry" />
        </mxCell>
        <mxCell id="l0D77ogCcX58pLdkU1v_-135" value="nomeElem" style="ellipse;whiteSpace=wrap;html=1;align=center;fillColor=#0050ef;fontColor=#ffffff;strokeColor=#001DBC;" vertex="1" parent="1">
          <mxGeometry x="1072" y="519" width="80" height="20" as="geometry" />
        </mxCell>
        <mxCell id="l0D77ogCcX58pLdkU1v_-136" style="edgeStyle=orthogonalEdgeStyle;rounded=0;orthogonalLoop=1;jettySize=auto;html=1;entryX=0;entryY=0.5;entryDx=0;entryDy=0;exitX=1;exitY=0.5;exitDx=0;exitDy=0;curved=1;" edge="1" parent="1" source="l0D77ogCcX58pLdkU1v_-156" target="l0D77ogCcX58pLdkU1v_-140">
          <mxGeometry relative="1" as="geometry">
            <mxPoint x="999" y="464" as="sourcePoint" />
          </mxGeometry>
        </mxCell>
        <mxCell id="l0D77ogCcX58pLdkU1v_-137" style="edgeStyle=orthogonalEdgeStyle;rounded=0;orthogonalLoop=1;jettySize=auto;html=1;entryX=0;entryY=0.5;entryDx=0;entryDy=0;exitX=1;exitY=0.5;exitDx=0;exitDy=0;curved=1;" edge="1" parent="1" source="l0D77ogCcX58pLdkU1v_-156" target="l0D77ogCcX58pLdkU1v_-141">
          <mxGeometry relative="1" as="geometry">
            <mxPoint x="999" y="464" as="sourcePoint" />
          </mxGeometry>
        </mxCell>
        <mxCell id="l0D77ogCcX58pLdkU1v_-138" style="edgeStyle=orthogonalEdgeStyle;rounded=0;orthogonalLoop=1;jettySize=auto;html=1;entryX=0;entryY=0.5;entryDx=0;entryDy=0;exitX=1;exitY=0.5;exitDx=0;exitDy=0;curved=1;" edge="1" parent="1" source="l0D77ogCcX58pLdkU1v_-156" target="l0D77ogCcX58pLdkU1v_-142">
          <mxGeometry relative="1" as="geometry">
            <mxPoint x="999" y="464" as="sourcePoint" />
          </mxGeometry>
        </mxCell>
        <mxCell id="l0D77ogCcX58pLdkU1v_-144" style="edgeStyle=orthogonalEdgeStyle;rounded=0;orthogonalLoop=1;jettySize=auto;html=1;entryX=0;entryY=0.5;entryDx=0;entryDy=0;exitX=1;exitY=0.5;exitDx=0;exitDy=0;curved=1;" edge="1" parent="1" source="l0D77ogCcX58pLdkU1v_-156" target="l0D77ogCcX58pLdkU1v_-143">
          <mxGeometry relative="1" as="geometry">
            <mxPoint x="999" y="464" as="sourcePoint" />
          </mxGeometry>
        </mxCell>
        <mxCell id="l0D77ogCcX58pLdkU1v_-146" style="edgeStyle=orthogonalEdgeStyle;rounded=0;orthogonalLoop=1;jettySize=auto;html=1;entryX=0;entryY=0.5;entryDx=0;entryDy=0;exitX=1;exitY=0.5;exitDx=0;exitDy=0;curved=1;" edge="1" parent="1" source="l0D77ogCcX58pLdkU1v_-156" target="l0D77ogCcX58pLdkU1v_-145">
          <mxGeometry relative="1" as="geometry">
            <mxPoint x="999" y="464" as="sourcePoint" />
          </mxGeometry>
        </mxCell>
        <mxCell id="l0D77ogCcX58pLdkU1v_-140" value="idAnimal" style="ellipse;whiteSpace=wrap;html=1;align=center;fontStyle=4;fillColor=#0050ef;fontColor=#ffffff;strokeColor=#001DBC;" vertex="1" parent="1">
          <mxGeometry x="1062" y="304" width="70" height="20" as="geometry" />
        </mxCell>
        <mxCell id="l0D77ogCcX58pLdkU1v_-141" value="nome" style="ellipse;whiteSpace=wrap;html=1;align=center;fillColor=#0050ef;fontColor=#ffffff;strokeColor=#001DBC;" vertex="1" parent="1">
          <mxGeometry x="1062" y="334" width="50" height="20" as="geometry" />
        </mxCell>
        <mxCell id="l0D77ogCcX58pLdkU1v_-142" value="nome" style="ellipse;whiteSpace=wrap;html=1;align=center;fillColor=#0050ef;fontColor=#ffffff;strokeColor=#001DBC;" vertex="1" parent="1">
          <mxGeometry x="1062" y="274" width="50" height="20" as="geometry" />
        </mxCell>
        <mxCell id="l0D77ogCcX58pLdkU1v_-143" value="especie" style="ellipse;whiteSpace=wrap;html=1;align=center;fillColor=#0050ef;fontColor=#ffffff;strokeColor=#001DBC;" vertex="1" parent="1">
          <mxGeometry x="1062" y="364" width="50" height="20" as="geometry" />
        </mxCell>
        <mxCell id="l0D77ogCcX58pLdkU1v_-145" value="hab_unica" style="ellipse;shape=doubleEllipse;margin=3;whiteSpace=wrap;html=1;align=center;fillColor=#0050ef;fontColor=#ffffff;strokeColor=#001DBC;" vertex="1" parent="1">
          <mxGeometry x="1062" y="244" width="80" height="25" as="geometry" />
        </mxCell>
        <mxCell id="l0D77ogCcX58pLdkU1v_-149" value="pertence" style="shape=rhombus;perimeter=rhombusPerimeter;whiteSpace=wrap;html=1;align=center;fillColor=#a20025;fontColor=#ffffff;strokeColor=#6F0000;" vertex="1" parent="1">
          <mxGeometry x="635" y="359" width="80" height="40" as="geometry" />
        </mxCell>
        <mxCell id="l0D77ogCcX58pLdkU1v_-155" value="dominaElemento" style="shape=associativeEntity;whiteSpace=wrap;html=1;align=center;fillColor=#a20025;fontColor=#ffffff;strokeColor=#6F0000;" vertex="1" parent="1">
          <mxGeometry x="917" y="479" width="130" height="39" as="geometry" />
        </mxCell>
        <mxCell id="l0D77ogCcX58pLdkU1v_-156" value="animalFant" style="shape=ext;margin=3;double=1;whiteSpace=wrap;html=1;align=center;direction=east;fillColor=#60a917;fontColor=#ffffff;strokeColor=#2D7600;" vertex="1" parent="1">
          <mxGeometry x="942" y="414" width="80" height="30" as="geometry" />
        </mxCell>
        <mxCell id="l0D77ogCcX58pLdkU1v_-157" value="possui" style="shape=rhombus;perimeter=rhombusPerimeter;whiteSpace=wrap;html=1;align=center;fillColor=#a20025;fontColor=#ffffff;strokeColor=#6F0000;" vertex="1" parent="1">
          <mxGeometry x="829" y="414" width="80" height="30" as="geometry" />
        </mxCell>
        <mxCell id="l0D77ogCcX58pLdkU1v_-161" value="ocorre" style="shape=rhombus;perimeter=rhombusPerimeter;whiteSpace=wrap;html=1;align=center;fillColor=#a20025;fontColor=#ffffff;strokeColor=#6F0000;" vertex="1" parent="1">
          <mxGeometry x="349" y="227" width="60" height="39" as="geometry" />
        </mxCell>
        <mxCell id="l0D77ogCcX58pLdkU1v_-167" value="pertence a" style="shape=rhombus;perimeter=rhombusPerimeter;whiteSpace=wrap;html=1;align=center;fillColor=#a20025;fontColor=#ffffff;strokeColor=#6F0000;" vertex="1" parent="1">
          <mxGeometry x="322" y="379.25" width="100" height="40" as="geometry" />
        </mxCell>
        <mxCell id="l0D77ogCcX58pLdkU1v_-170" value="domina" style="shape=rhombus;perimeter=rhombusPerimeter;whiteSpace=wrap;html=1;align=center;fillColor=#a20025;fontColor=#ffffff;strokeColor=#6F0000;" vertex="1" parent="1">
          <mxGeometry x="882" y="569" width="60" height="32" as="geometry" />
        </mxCell>
        <mxCell id="l0D77ogCcX58pLdkU1v_-182" value="ocorre em" style="shape=rhombus;perimeter=rhombusPerimeter;whiteSpace=wrap;html=1;align=center;fillColor=#a20025;fontColor=#ffffff;strokeColor=#6F0000;" vertex="1" parent="1">
          <mxGeometry x="152" y="349" width="90" height="35" as="geometry" />
        </mxCell>
        <mxCell id="l0D77ogCcX58pLdkU1v_-195" style="rounded=0;orthogonalLoop=1;jettySize=auto;html=1;exitX=0.01;exitY=0.97;exitDx=0;exitDy=0;exitPerimeter=0;entryX=1;entryY=0;entryDx=0;entryDy=0;edgeStyle=orthogonalEdgeStyle;curved=1;" edge="1" parent="1" source="l0D77ogCcX58pLdkU1v_-187" target="l0D77ogCcX58pLdkU1v_-188">
          <mxGeometry relative="1" as="geometry">
            <mxPoint x="766.2299999999998" y="474.0000000000001" as="sourcePoint" />
          </mxGeometry>
        </mxCell>
        <mxCell id="l0D77ogCcX58pLdkU1v_-196" style="rounded=0;orthogonalLoop=1;jettySize=auto;html=1;exitX=0.99;exitY=0.97;exitDx=0;exitDy=0;exitPerimeter=0;entryX=0;entryY=0;entryDx=0;entryDy=0;edgeStyle=orthogonalEdgeStyle;curved=1;" edge="1" parent="1" source="l0D77ogCcX58pLdkU1v_-187" target="l0D77ogCcX58pLdkU1v_-194">
          <mxGeometry relative="1" as="geometry" />
        </mxCell>
        <mxCell id="l0D77ogCcX58pLdkU1v_-187" value="" style="strokeWidth=2;html=1;shape=mxgraph.flowchart.extract_or_measurement;whiteSpace=wrap;fillColor=#d80073;fontColor=#ffffff;strokeColor=#A50040;" vertex="1" parent="1">
          <mxGeometry x="793" y="438.5" width="23" height="20" as="geometry" />
        </mxCell>
        <mxCell id="l0D77ogCcX58pLdkU1v_-199" style="edgeStyle=orthogonalEdgeStyle;rounded=0;orthogonalLoop=1;jettySize=auto;html=1;entryX=0.5;entryY=1;entryDx=0;entryDy=0;curved=1;exitX=0;exitY=0;exitDx=0;exitDy=0;" edge="1" parent="1" source="l0D77ogCcX58pLdkU1v_-188" target="l0D77ogCcX58pLdkU1v_-198">
          <mxGeometry relative="1" as="geometry" />
        </mxCell>
        <mxCell id="l0D77ogCcX58pLdkU1v_-188" value="nDobrador" style="whiteSpace=wrap;html=1;align=center;fillColor=#008a00;fontColor=#ffffff;strokeColor=#005700;" vertex="1" parent="1">
          <mxGeometry x="716" y="514.6" width="60" height="20" as="geometry" />
        </mxCell>
        <mxCell id="l0D77ogCcX58pLdkU1v_-192" style="rounded=0;orthogonalLoop=1;jettySize=auto;html=1;exitX=0.404;exitY=1.078;exitDx=0;exitDy=0;entryX=0.5;entryY=0;entryDx=0;entryDy=0;entryPerimeter=0;exitPerimeter=0;" edge="1" parent="1" source="l0D77ogCcX58pLdkU1v_-20" target="l0D77ogCcX58pLdkU1v_-187">
          <mxGeometry relative="1" as="geometry" />
        </mxCell>
        <mxCell id="l0D77ogCcX58pLdkU1v_-201" style="edgeStyle=orthogonalEdgeStyle;rounded=0;orthogonalLoop=1;jettySize=auto;html=1;exitX=0.5;exitY=1;exitDx=0;exitDy=0;entryX=1;entryY=0.5;entryDx=0;entryDy=0;curved=1;" edge="1" parent="1" source="l0D77ogCcX58pLdkU1v_-194" target="l0D77ogCcX58pLdkU1v_-200">
          <mxGeometry relative="1" as="geometry" />
        </mxCell>
        <mxCell id="l0D77ogCcX58pLdkU1v_-194" value="Dobrador" style="whiteSpace=wrap;html=1;align=center;fillColor=#008a00;fontColor=#ffffff;strokeColor=#005700;" vertex="1" parent="1">
          <mxGeometry x="822" y="492.5" width="60" height="20" as="geometry" />
        </mxCell>
        <mxCell id="l0D77ogCcX58pLdkU1v_-198" value="funcao" style="ellipse;whiteSpace=wrap;html=1;align=center;fillColor=#0050ef;fontColor=#ffffff;strokeColor=#001DBC;" vertex="1" parent="1">
          <mxGeometry x="692" y="479" width="43.5" height="24" as="geometry" />
        </mxCell>
        <mxCell id="l0D77ogCcX58pLdkU1v_-200" value="elemNativo" style="ellipse;whiteSpace=wrap;html=1;align=center;fillColor=#0050ef;fontColor=#ffffff;strokeColor=#001DBC;" vertex="1" parent="1">
          <mxGeometry x="776" y="539" width="78" height="20" as="geometry" />
        </mxCell>
        <mxCell id="l0D77ogCcX58pLdkU1v_-224" style="edgeStyle=orthogonalEdgeStyle;rounded=0;orthogonalLoop=1;jettySize=auto;html=1;entryX=0;entryY=0.5;entryDx=0;entryDy=0;curved=1;" edge="1" source="l0D77ogCcX58pLdkU1v_-227" target="l0D77ogCcX58pLdkU1v_-229" parent="1">
          <mxGeometry relative="1" as="geometry" />
        </mxCell>
        <mxCell id="l0D77ogCcX58pLdkU1v_-225" style="edgeStyle=orthogonalEdgeStyle;rounded=0;orthogonalLoop=1;jettySize=auto;html=1;entryX=1;entryY=0.5;entryDx=0;entryDy=0;curved=1;" edge="1" source="l0D77ogCcX58pLdkU1v_-227" target="l0D77ogCcX58pLdkU1v_-230" parent="1">
          <mxGeometry relative="1" as="geometry" />
        </mxCell>
        <mxCell id="l0D77ogCcX58pLdkU1v_-226" style="edgeStyle=orthogonalEdgeStyle;rounded=0;orthogonalLoop=1;jettySize=auto;html=1;curved=1;entryX=1;entryY=0.5;entryDx=0;entryDy=0;" edge="1" source="l0D77ogCcX58pLdkU1v_-227" target="l0D77ogCcX58pLdkU1v_-228" parent="1">
          <mxGeometry relative="1" as="geometry" />
        </mxCell>
        <mxCell id="l0D77ogCcX58pLdkU1v_-227" value="prisao" style="whiteSpace=wrap;html=1;align=center;fillColor=#60a917;fontColor=#ffffff;strokeColor=#2D7600;" vertex="1" parent="1">
          <mxGeometry x="615" y="521" width="40" height="20" as="geometry" />
        </mxCell>
        <mxCell id="l0D77ogCcX58pLdkU1v_-228" value="localizacao" style="ellipse;whiteSpace=wrap;html=1;align=center;fillColor=#0050ef;fontColor=#ffffff;strokeColor=#001DBC;" vertex="1" parent="1">
          <mxGeometry x="535" y="593.5" width="80" height="20" as="geometry" />
        </mxCell>
        <mxCell id="l0D77ogCcX58pLdkU1v_-229" value="idPrisao" style="ellipse;whiteSpace=wrap;html=1;align=center;fontStyle=4;fillColor=#0050ef;fontColor=#ffffff;strokeColor=#001DBC;" vertex="1" parent="1">
          <mxGeometry x="655" y="584" width="70" height="20" as="geometry" />
        </mxCell>
        <mxCell id="l0D77ogCcX58pLdkU1v_-230" value="nome" style="ellipse;whiteSpace=wrap;html=1;align=center;fillColor=#0050ef;fontColor=#ffffff;strokeColor=#001DBC;" vertex="1" parent="1">
          <mxGeometry x="565" y="553" width="50" height="20" as="geometry" />
        </mxCell>
        <mxCell id="l0D77ogCcX58pLdkU1v_-234" style="rounded=0;orthogonalLoop=1;jettySize=auto;html=1;entryX=0;entryY=0.5;entryDx=0;entryDy=0;edgeStyle=orthogonalEdgeStyle;curved=1;" edge="1" parent="1" source="l0D77ogCcX58pLdkU1v_-231" target="l0D77ogCcX58pLdkU1v_-233">
          <mxGeometry relative="1" as="geometry" />
        </mxCell>
        <mxCell id="l0D77ogCcX58pLdkU1v_-239" style="edgeStyle=orthogonalEdgeStyle;rounded=0;orthogonalLoop=1;jettySize=auto;html=1;exitX=0.5;exitY=1;exitDx=0;exitDy=0;entryX=1;entryY=0.5;entryDx=0;entryDy=0;curved=1;" edge="1" parent="1" source="l0D77ogCcX58pLdkU1v_-231" target="l0D77ogCcX58pLdkU1v_-236">
          <mxGeometry relative="1" as="geometry" />
        </mxCell>
        <mxCell id="l0D77ogCcX58pLdkU1v_-240" style="edgeStyle=orthogonalEdgeStyle;rounded=0;orthogonalLoop=1;jettySize=auto;html=1;entryX=0;entryY=0.5;entryDx=0;entryDy=0;curved=1;" edge="1" parent="1" source="l0D77ogCcX58pLdkU1v_-231" target="l0D77ogCcX58pLdkU1v_-237">
          <mxGeometry relative="1" as="geometry" />
        </mxCell>
        <mxCell id="l0D77ogCcX58pLdkU1v_-241" style="edgeStyle=orthogonalEdgeStyle;rounded=0;orthogonalLoop=1;jettySize=auto;html=1;exitX=0.5;exitY=1;exitDx=0;exitDy=0;entryX=0.5;entryY=0;entryDx=0;entryDy=0;curved=1;" edge="1" parent="1" source="l0D77ogCcX58pLdkU1v_-231" target="l0D77ogCcX58pLdkU1v_-238">
          <mxGeometry relative="1" as="geometry">
            <mxPoint x="457" y="601" as="targetPoint" />
          </mxGeometry>
        </mxCell>
        <mxCell id="l0D77ogCcX58pLdkU1v_-231" value="tentativaFuga" style="shape=ext;margin=3;double=1;whiteSpace=wrap;html=1;align=center;fillColor=#60a917;fontColor=#ffffff;strokeColor=#2D7600;" vertex="1" parent="1">
          <mxGeometry x="442" y="474" width="85" height="32" as="geometry" />
        </mxCell>
        <mxCell id="l0D77ogCcX58pLdkU1v_-233" value="idTentativa" style="ellipse;whiteSpace=wrap;html=1;align=center;fontStyle=4;fillColor=#0050ef;fontColor=#ffffff;strokeColor=#001DBC;" vertex="1" parent="1">
          <mxGeometry x="505" y="524" width="70" height="20" as="geometry" />
        </mxCell>
        <mxCell id="l0D77ogCcX58pLdkU1v_-236" value="data" style="ellipse;whiteSpace=wrap;html=1;align=center;fillColor=#0050ef;fontColor=#ffffff;strokeColor=#001DBC;" vertex="1" parent="1">
          <mxGeometry x="422" y="546" width="40" height="20" as="geometry" />
        </mxCell>
        <mxCell id="l0D77ogCcX58pLdkU1v_-237" value="metodo" style="ellipse;whiteSpace=wrap;html=1;align=center;fillColor=#0050ef;fontColor=#ffffff;strokeColor=#001DBC;" vertex="1" parent="1">
          <mxGeometry x="505" y="551" width="50" height="20" as="geometry" />
        </mxCell>
        <mxCell id="l0D77ogCcX58pLdkU1v_-238" value="resultado" style="ellipse;whiteSpace=wrap;html=1;align=center;fillColor=#0050ef;fontColor=#ffffff;strokeColor=#001DBC;" vertex="1" parent="1">
          <mxGeometry x="449.5" y="584" width="70" height="21" as="geometry" />
        </mxCell>
        <mxCell id="l0D77ogCcX58pLdkU1v_-242" value="tentativa" style="shape=rhombus;perimeter=rhombusPerimeter;whiteSpace=wrap;html=1;align=center;fillColor=#a20025;fontColor=#ffffff;strokeColor=#6F0000;" vertex="1" parent="1">
          <mxGeometry x="602" y="438.5" width="80" height="30" as="geometry" />
        </mxCell>
        <mxCell id="l0D77ogCcX58pLdkU1v_-249" value="" style="endArrow=none;html=1;rounded=0;entryX=0;entryY=0.5;entryDx=0;entryDy=0;exitX=1;exitY=0.5;exitDx=0;exitDy=0;edgeStyle=orthogonalEdgeStyle;curved=1;" edge="1" parent="1" source="l0D77ogCcX58pLdkU1v_-231" target="l0D77ogCcX58pLdkU1v_-242">
          <mxGeometry relative="1" as="geometry">
            <mxPoint x="397" y="671" as="sourcePoint" />
            <mxPoint x="557.0000000000002" y="480.4999999999998" as="targetPoint" />
          </mxGeometry>
        </mxCell>
        <mxCell id="l0D77ogCcX58pLdkU1v_-250" value="(0,N)" style="edgeLabel;html=1;align=center;verticalAlign=middle;resizable=0;points=[];" vertex="1" connectable="0" parent="l0D77ogCcX58pLdkU1v_-249">
          <mxGeometry x="-0.7643" y="-3" relative="1" as="geometry">
            <mxPoint x="11" y="-9" as="offset" />
          </mxGeometry>
        </mxCell>
        <mxCell id="l0D77ogCcX58pLdkU1v_-251" value="" style="endArrow=none;html=1;rounded=0;entryX=0.5;entryY=1;entryDx=0;entryDy=0;exitX=0.5;exitY=0;exitDx=0;exitDy=0;edgeStyle=orthogonalEdgeStyle;curved=1;" edge="1" parent="1" source="l0D77ogCcX58pLdkU1v_-227" target="l0D77ogCcX58pLdkU1v_-242">
          <mxGeometry relative="1" as="geometry">
            <mxPoint x="362" y="659" as="sourcePoint" />
            <mxPoint x="522" y="659" as="targetPoint" />
          </mxGeometry>
        </mxCell>
        <mxCell id="l0D77ogCcX58pLdkU1v_-252" value="(1,N)" style="edgeLabel;html=1;align=center;verticalAlign=middle;resizable=0;points=[];" vertex="1" connectable="0" parent="l0D77ogCcX58pLdkU1v_-251">
          <mxGeometry x="-0.7436" y="-3" relative="1" as="geometry">
            <mxPoint as="offset" />
          </mxGeometry>
        </mxCell>
        <mxCell id="l0D77ogCcX58pLdkU1v_-253" value="" style="endArrow=none;html=1;rounded=0;entryX=0;entryY=1;entryDx=0;entryDy=0;exitX=0.5;exitY=0;exitDx=0;exitDy=0;edgeStyle=orthogonalEdgeStyle;curved=1;" edge="1" parent="1" source="l0D77ogCcX58pLdkU1v_-242" target="l0D77ogCcX58pLdkU1v_-20">
          <mxGeometry relative="1" as="geometry">
            <mxPoint x="362" y="659" as="sourcePoint" />
            <mxPoint x="522" y="659" as="targetPoint" />
          </mxGeometry>
        </mxCell>
        <mxCell id="l0D77ogCcX58pLdkU1v_-254" value="(1,N)" style="edgeLabel;html=1;align=center;verticalAlign=middle;resizable=0;points=[];" vertex="1" connectable="0" parent="l0D77ogCcX58pLdkU1v_-253">
          <mxGeometry x="0.6288" y="-3" relative="1" as="geometry">
            <mxPoint as="offset" />
          </mxGeometry>
        </mxCell>
        <mxCell id="l0D77ogCcX58pLdkU1v_-255" value="" style="endArrow=none;html=1;rounded=0;exitX=1;exitY=0.5;exitDx=0;exitDy=0;entryX=0;entryY=0.5;entryDx=0;entryDy=0;" edge="1" parent="1" source="l0D77ogCcX58pLdkU1v_-149" target="l0D77ogCcX58pLdkU1v_-20">
          <mxGeometry relative="1" as="geometry">
            <mxPoint x="572" y="449" as="sourcePoint" />
            <mxPoint x="732" y="449" as="targetPoint" />
          </mxGeometry>
        </mxCell>
        <mxCell id="l0D77ogCcX58pLdkU1v_-256" value="(1,N)" style="edgeLabel;html=1;align=center;verticalAlign=middle;resizable=0;points=[];" vertex="1" connectable="0" parent="l0D77ogCcX58pLdkU1v_-255">
          <mxGeometry x="0.6369" y="-1" relative="1" as="geometry">
            <mxPoint x="-16" as="offset" />
          </mxGeometry>
        </mxCell>
        <mxCell id="l0D77ogCcX58pLdkU1v_-257" value="" style="endArrow=none;html=1;rounded=0;exitX=1;exitY=0.5;exitDx=0;exitDy=0;entryX=0;entryY=0.5;entryDx=0;entryDy=0;" edge="1" parent="1" source="l0D77ogCcX58pLdkU1v_-50" target="l0D77ogCcX58pLdkU1v_-149">
          <mxGeometry relative="1" as="geometry">
            <mxPoint x="362" y="659" as="sourcePoint" />
            <mxPoint x="522" y="659" as="targetPoint" />
          </mxGeometry>
        </mxCell>
        <mxCell id="l0D77ogCcX58pLdkU1v_-258" value="(1,1)" style="edgeLabel;html=1;align=center;verticalAlign=middle;resizable=0;points=[];" vertex="1" connectable="0" parent="l0D77ogCcX58pLdkU1v_-257">
          <mxGeometry x="0.4294" relative="1" as="geometry">
            <mxPoint as="offset" />
          </mxGeometry>
        </mxCell>
        <mxCell id="l0D77ogCcX58pLdkU1v_-265" value="" style="endArrow=none;html=1;rounded=0;exitX=1;exitY=0.5;exitDx=0;exitDy=0;entryX=0;entryY=0.5;entryDx=0;entryDy=0;" edge="1" parent="1" source="l0D77ogCcX58pLdkU1v_-67" target="l0D77ogCcX58pLdkU1v_-161">
          <mxGeometry relative="1" as="geometry">
            <mxPoint x="362" y="459" as="sourcePoint" />
            <mxPoint x="522" y="459" as="targetPoint" />
          </mxGeometry>
        </mxCell>
        <mxCell id="l0D77ogCcX58pLdkU1v_-266" value="(1,1)" style="edgeLabel;html=1;align=center;verticalAlign=middle;resizable=0;points=[];" vertex="1" connectable="0" parent="l0D77ogCcX58pLdkU1v_-265">
          <mxGeometry x="-0.0176" y="1" relative="1" as="geometry">
            <mxPoint as="offset" />
          </mxGeometry>
        </mxCell>
        <mxCell id="l0D77ogCcX58pLdkU1v_-267" value="" style="endArrow=none;html=1;rounded=0;exitX=1;exitY=0.5;exitDx=0;exitDy=0;entryX=0;entryY=0.5;entryDx=0;entryDy=0;" edge="1" parent="1" source="l0D77ogCcX58pLdkU1v_-161" target="l0D77ogCcX58pLdkU1v_-100">
          <mxGeometry relative="1" as="geometry">
            <mxPoint x="362" y="459" as="sourcePoint" />
            <mxPoint x="522" y="459" as="targetPoint" />
          </mxGeometry>
        </mxCell>
        <mxCell id="l0D77ogCcX58pLdkU1v_-268" value="(1,N)" style="edgeLabel;html=1;align=center;verticalAlign=middle;resizable=0;points=[];" vertex="1" connectable="0" parent="l0D77ogCcX58pLdkU1v_-267">
          <mxGeometry x="-0.3635" y="-1" relative="1" as="geometry">
            <mxPoint as="offset" />
          </mxGeometry>
        </mxCell>
        <mxCell id="l0D77ogCcX58pLdkU1v_-269" value="" style="endArrow=none;html=1;rounded=0;entryX=0.5;entryY=1;entryDx=0;entryDy=0;exitX=1;exitY=0.5;exitDx=0;exitDy=0;edgeStyle=orthogonalEdgeStyle;curved=1;" edge="1" parent="1" source="l0D77ogCcX58pLdkU1v_-167" target="l0D77ogCcX58pLdkU1v_-50">
          <mxGeometry relative="1" as="geometry">
            <mxPoint x="162" y="479" as="sourcePoint" />
            <mxPoint x="322" y="479" as="targetPoint" />
          </mxGeometry>
        </mxCell>
        <mxCell id="l0D77ogCcX58pLdkU1v_-270" value="(1,1)" style="edgeLabel;html=1;align=center;verticalAlign=middle;resizable=0;points=[];" vertex="1" connectable="0" parent="l0D77ogCcX58pLdkU1v_-269">
          <mxGeometry x="0.0237" y="1" relative="1" as="geometry">
            <mxPoint as="offset" />
          </mxGeometry>
        </mxCell>
        <mxCell id="l0D77ogCcX58pLdkU1v_-271" value="" style="endArrow=none;html=1;rounded=0;exitX=1;exitY=0.5;exitDx=0;exitDy=0;entryX=0;entryY=0.5;entryDx=0;entryDy=0;edgeStyle=orthogonalEdgeStyle;curved=1;" edge="1" parent="1" source="l0D77ogCcX58pLdkU1v_-1" target="l0D77ogCcX58pLdkU1v_-167">
          <mxGeometry relative="1" as="geometry">
            <mxPoint x="162" y="479" as="sourcePoint" />
            <mxPoint x="322" y="479" as="targetPoint" />
          </mxGeometry>
        </mxCell>
        <mxCell id="l0D77ogCcX58pLdkU1v_-272" value="(1,1)" style="edgeLabel;html=1;align=center;verticalAlign=middle;resizable=0;points=[];" vertex="1" connectable="0" parent="l0D77ogCcX58pLdkU1v_-271">
          <mxGeometry x="0.0276" relative="1" as="geometry">
            <mxPoint as="offset" />
          </mxGeometry>
        </mxCell>
        <mxCell id="l0D77ogCcX58pLdkU1v_-273" value="" style="endArrow=none;html=1;rounded=0;entryX=0.5;entryY=0;entryDx=0;entryDy=0;edgeStyle=orthogonalEdgeStyle;curved=1;" edge="1" parent="1" target="l0D77ogCcX58pLdkU1v_-182">
          <mxGeometry relative="1" as="geometry">
            <mxPoint x="242" y="259" as="sourcePoint" />
            <mxPoint x="222" y="399" as="targetPoint" />
          </mxGeometry>
        </mxCell>
        <mxCell id="l0D77ogCcX58pLdkU1v_-274" value="(1,N)" style="edgeLabel;html=1;align=center;verticalAlign=middle;resizable=0;points=[];" vertex="1" connectable="0" parent="l0D77ogCcX58pLdkU1v_-273">
          <mxGeometry x="-0.1155" y="1" relative="1" as="geometry">
            <mxPoint as="offset" />
          </mxGeometry>
        </mxCell>
        <mxCell id="l0D77ogCcX58pLdkU1v_-275" value="" style="endArrow=none;html=1;rounded=0;entryX=0.5;entryY=0;entryDx=0;entryDy=0;exitX=0.5;exitY=1;exitDx=0;exitDy=0;edgeStyle=orthogonalEdgeStyle;curved=1;" edge="1" parent="1" source="l0D77ogCcX58pLdkU1v_-182" target="l0D77ogCcX58pLdkU1v_-1">
          <mxGeometry relative="1" as="geometry">
            <mxPoint x="214" y="343.5" as="sourcePoint" />
            <mxPoint x="382" y="338.5" as="targetPoint" />
          </mxGeometry>
        </mxCell>
        <mxCell id="l0D77ogCcX58pLdkU1v_-276" value="(1,N)" style="edgeLabel;html=1;align=center;verticalAlign=middle;resizable=0;points=[];" vertex="1" connectable="0" parent="l0D77ogCcX58pLdkU1v_-275">
          <mxGeometry x="0.0151" y="2" relative="1" as="geometry">
            <mxPoint as="offset" />
          </mxGeometry>
        </mxCell>
        <mxCell id="l0D77ogCcX58pLdkU1v_-278" value="" style="shape=link;html=1;rounded=0;exitX=0.5;exitY=1;exitDx=0;exitDy=0;entryX=0;entryY=0;entryDx=0;entryDy=0;" edge="1" parent="1" source="l0D77ogCcX58pLdkU1v_-100" target="l0D77ogCcX58pLdkU1v_-20">
          <mxGeometry relative="1" as="geometry">
            <mxPoint x="642" y="129" as="sourcePoint" />
            <mxPoint x="802" y="129" as="targetPoint" />
          </mxGeometry>
        </mxCell>
        <mxCell id="l0D77ogCcX58pLdkU1v_-279" value="N" style="resizable=0;html=1;whiteSpace=wrap;align=right;verticalAlign=bottom;" connectable="0" vertex="1" parent="l0D77ogCcX58pLdkU1v_-278">
          <mxGeometry x="1" relative="1" as="geometry" />
        </mxCell>
        <mxCell id="l0D77ogCcX58pLdkU1v_-280" value="" style="shape=link;html=1;rounded=0;exitX=0.5;exitY=1;exitDx=0;exitDy=0;entryX=0.5;entryY=0;entryDx=0;entryDy=0;" edge="1" parent="1" source="l0D77ogCcX58pLdkU1v_-114" target="l0D77ogCcX58pLdkU1v_-20">
          <mxGeometry relative="1" as="geometry">
            <mxPoint x="497" y="267" as="sourcePoint" />
            <mxPoint x="782" y="374" as="targetPoint" />
          </mxGeometry>
        </mxCell>
        <mxCell id="l0D77ogCcX58pLdkU1v_-281" value="N" style="resizable=0;html=1;whiteSpace=wrap;align=right;verticalAlign=bottom;" connectable="0" vertex="1" parent="l0D77ogCcX58pLdkU1v_-280">
          <mxGeometry x="1" relative="1" as="geometry" />
        </mxCell>
        <mxCell id="l0D77ogCcX58pLdkU1v_-282" style="edgeStyle=orthogonalEdgeStyle;rounded=0;orthogonalLoop=1;jettySize=auto;html=1;exitX=0.5;exitY=1;exitDx=0;exitDy=0;" edge="1" parent="1" source="l0D77ogCcX58pLdkU1v_-155" target="l0D77ogCcX58pLdkU1v_-155">
          <mxGeometry relative="1" as="geometry" />
        </mxCell>
        <mxCell id="l0D77ogCcX58pLdkU1v_-283" value="" style="endArrow=none;html=1;rounded=0;exitX=0.5;exitY=1;exitDx=0;exitDy=0;entryX=0.5;entryY=0;entryDx=0;entryDy=0;" edge="1" parent="1" source="l0D77ogCcX58pLdkU1v_-155" target="l0D77ogCcX58pLdkU1v_-130">
          <mxGeometry relative="1" as="geometry">
            <mxPoint x="742" y="659" as="sourcePoint" />
            <mxPoint x="902" y="659" as="targetPoint" />
          </mxGeometry>
        </mxCell>
        <mxCell id="l0D77ogCcX58pLdkU1v_-284" value="(1,1)" style="edgeLabel;html=1;align=center;verticalAlign=middle;resizable=0;points=[];" vertex="1" connectable="0" parent="l0D77ogCcX58pLdkU1v_-283">
          <mxGeometry x="-0.4789" y="1" relative="1" as="geometry">
            <mxPoint as="offset" />
          </mxGeometry>
        </mxCell>
        <mxCell id="l0D77ogCcX58pLdkU1v_-286" value="" style="endArrow=none;html=1;rounded=0;exitX=1;exitY=0.5;exitDx=0;exitDy=0;entryX=0;entryY=0.5;entryDx=0;entryDy=0;edgeStyle=orthogonalEdgeStyle;curved=1;" edge="1" parent="1" source="l0D77ogCcX58pLdkU1v_-194" target="l0D77ogCcX58pLdkU1v_-155">
          <mxGeometry relative="1" as="geometry">
            <mxPoint x="802" y="649" as="sourcePoint" />
            <mxPoint x="962" y="649" as="targetPoint" />
          </mxGeometry>
        </mxCell>
        <mxCell id="l0D77ogCcX58pLdkU1v_-287" value="(1,N)" style="edgeLabel;html=1;align=center;verticalAlign=middle;resizable=0;points=[];" vertex="1" connectable="0" parent="l0D77ogCcX58pLdkU1v_-286">
          <mxGeometry x="-0.1986" y="-4" relative="1" as="geometry">
            <mxPoint x="-1" y="-8" as="offset" />
          </mxGeometry>
        </mxCell>
        <mxCell id="l0D77ogCcX58pLdkU1v_-289" value="" style="endArrow=none;html=1;rounded=0;exitX=1;exitY=0.5;exitDx=0;exitDy=0;entryX=0.5;entryY=1;entryDx=0;entryDy=0;edgeStyle=orthogonalEdgeStyle;curved=1;" edge="1" parent="1" source="l0D77ogCcX58pLdkU1v_-40" target="l0D77ogCcX58pLdkU1v_-170">
          <mxGeometry relative="1" as="geometry">
            <mxPoint x="302" y="679" as="sourcePoint" />
            <mxPoint x="462" y="679" as="targetPoint" />
          </mxGeometry>
        </mxCell>
        <mxCell id="l0D77ogCcX58pLdkU1v_-292" value="(1,N)" style="edgeLabel;html=1;align=center;verticalAlign=middle;resizable=0;points=[];" vertex="1" connectable="0" parent="l0D77ogCcX58pLdkU1v_-289">
          <mxGeometry x="-0.105" y="-1" relative="1" as="geometry">
            <mxPoint as="offset" />
          </mxGeometry>
        </mxCell>
        <mxCell id="l0D77ogCcX58pLdkU1v_-290" value="" style="endArrow=none;html=1;rounded=0;exitX=1;exitY=0.5;exitDx=0;exitDy=0;edgeStyle=orthogonalEdgeStyle;curved=1;" edge="1" parent="1" source="l0D77ogCcX58pLdkU1v_-194" target="l0D77ogCcX58pLdkU1v_-170">
          <mxGeometry relative="1" as="geometry">
            <mxPoint x="512" y="339" as="sourcePoint" />
            <mxPoint x="462" y="679" as="targetPoint" />
          </mxGeometry>
        </mxCell>
        <mxCell id="l0D77ogCcX58pLdkU1v_-291" value="(1,N)" style="edgeLabel;html=1;align=center;verticalAlign=middle;resizable=0;points=[];" vertex="1" connectable="0" parent="l0D77ogCcX58pLdkU1v_-290">
          <mxGeometry x="0.4795" y="-1" relative="1" as="geometry">
            <mxPoint as="offset" />
          </mxGeometry>
        </mxCell>
        <mxCell id="l0D77ogCcX58pLdkU1v_-293" style="edgeStyle=orthogonalEdgeStyle;rounded=0;orthogonalLoop=1;jettySize=auto;html=1;exitX=0.5;exitY=1;exitDx=0;exitDy=0;" edge="1" parent="1" source="l0D77ogCcX58pLdkU1v_-238" target="l0D77ogCcX58pLdkU1v_-238">
          <mxGeometry relative="1" as="geometry" />
        </mxCell>
        <mxCell id="l0D77ogCcX58pLdkU1v_-294" value="utiliza" style="shape=rhombus;perimeter=rhombusPerimeter;whiteSpace=wrap;html=1;align=center;fillColor=#a20025;fontColor=#ffffff;strokeColor=#6F0000;" vertex="1" parent="1">
          <mxGeometry x="422" y="428.5" width="67" height="19" as="geometry" />
        </mxCell>
        <mxCell id="l0D77ogCcX58pLdkU1v_-295" value="" style="endArrow=none;html=1;rounded=0;entryX=1;entryY=0.5;entryDx=0;entryDy=0;edgeStyle=orthogonalEdgeStyle;curved=1;exitX=0.093;exitY=0.454;exitDx=0;exitDy=0;exitPerimeter=0;" edge="1" parent="1" source="l0D77ogCcX58pLdkU1v_-294" target="l0D77ogCcX58pLdkU1v_-85">
          <mxGeometry relative="1" as="geometry">
            <mxPoint x="462" y="489" as="sourcePoint" />
            <mxPoint x="642" y="489" as="targetPoint" />
          </mxGeometry>
        </mxCell>
        <mxCell id="l0D77ogCcX58pLdkU1v_-296" value="(N,N)" style="edgeLabel;html=1;align=center;verticalAlign=middle;resizable=0;points=[];" vertex="1" connectable="0" parent="l0D77ogCcX58pLdkU1v_-295">
          <mxGeometry x="-0.1853" y="2" relative="1" as="geometry">
            <mxPoint as="offset" />
          </mxGeometry>
        </mxCell>
        <mxCell id="l0D77ogCcX58pLdkU1v_-297" value="" style="endArrow=none;html=1;rounded=0;exitX=1;exitY=0.5;exitDx=0;exitDy=0;entryX=0.5;entryY=1;entryDx=0;entryDy=0;edgeStyle=orthogonalEdgeStyle;curved=1;" edge="1" parent="1" source="l0D77ogCcX58pLdkU1v_-294" target="l0D77ogCcX58pLdkU1v_-50">
          <mxGeometry relative="1" as="geometry">
            <mxPoint x="482" y="489" as="sourcePoint" />
            <mxPoint x="542" y="349" as="targetPoint" />
          </mxGeometry>
        </mxCell>
        <mxCell id="l0D77ogCcX58pLdkU1v_-298" value="(1,N)" style="edgeLabel;html=1;align=center;verticalAlign=middle;resizable=0;points=[];" vertex="1" connectable="0" parent="l0D77ogCcX58pLdkU1v_-297">
          <mxGeometry x="-0.249" y="-2" relative="1" as="geometry">
            <mxPoint as="offset" />
          </mxGeometry>
        </mxCell>
        <mxCell id="l0D77ogCcX58pLdkU1v_-299" value="" style="endArrow=none;html=1;rounded=0;entryX=0;entryY=0.5;entryDx=0;entryDy=0;exitX=1;exitY=0.5;exitDx=0;exitDy=0;" edge="1" parent="1" source="l0D77ogCcX58pLdkU1v_-157" target="l0D77ogCcX58pLdkU1v_-156">
          <mxGeometry relative="1" as="geometry">
            <mxPoint x="912" y="429" as="sourcePoint" />
            <mxPoint x="1032" y="449" as="targetPoint" />
          </mxGeometry>
        </mxCell>
        <mxCell id="l0D77ogCcX58pLdkU1v_-300" value="(1,1)" style="edgeLabel;html=1;align=center;verticalAlign=middle;resizable=0;points=[];" vertex="1" connectable="0" parent="l0D77ogCcX58pLdkU1v_-299">
          <mxGeometry x="-0.3253" y="-1" relative="1" as="geometry">
            <mxPoint as="offset" />
          </mxGeometry>
        </mxCell>
        <mxCell id="l0D77ogCcX58pLdkU1v_-301" value="" style="endArrow=none;html=1;rounded=0;exitX=1;exitY=1;exitDx=0;exitDy=0;entryX=0.5;entryY=0;entryDx=0;entryDy=0;" edge="1" parent="1" source="l0D77ogCcX58pLdkU1v_-20" target="l0D77ogCcX58pLdkU1v_-157">
          <mxGeometry relative="1" as="geometry">
            <mxPoint x="862" y="459" as="sourcePoint" />
            <mxPoint x="1022" y="459" as="targetPoint" />
          </mxGeometry>
        </mxCell>
        <mxCell id="l0D77ogCcX58pLdkU1v_-302" value="(1,N)" style="edgeLabel;html=1;align=center;verticalAlign=middle;resizable=0;points=[];" vertex="1" connectable="0" parent="l0D77ogCcX58pLdkU1v_-301">
          <mxGeometry x="-0.1961" relative="1" as="geometry">
            <mxPoint as="offset" />
          </mxGeometry>
        </mxCell>
      </root>
    </mxGraphModel>
  </diagram>
</mxfile>
